<!-- icon666.com - MILLIONS vector ICONS FREE --><svg id="mail" viewBox="0 0 512 512" xmlns="http://www.w3.org/2000/svg" data-name="Layer 1"><g fill-rule="evenodd"><path d="m446.974 32.536a64.721 64.721 0 0 1 41.526 15.028l-232.5 197.245-232.5-197.247a64.725 64.725 0 0 1 41.526-15.026z"></path><path d="m512 414.436a65.1 65.1 0 0 1 -65.026 65.028h-381.948a65.1 65.1 0 0 1 -65.026-65.026v-316.877a64.646 64.646 0 0 1 11.914-37.447l238.565 202.392a8.529 8.529 0 0 0 11.041 0l238.567-202.392a64.655 64.655 0 0 1 11.913 37.448z"></path></g></svg>